<svg xmlns="http://www.w3.org/2000/svg" viewBox="0 0 127.14 96.36">
  <path fill="#5865F2" d="M107.7 8.07A105.15 105.15 0 0 0 81.47 0a72.06 72.06 0 0 0-3.36 6.83 97.68 97.68 0 0 0-29.06 0A72.37 72.37 0 0 0 45.69 0a105.89 105.89 0 0 0-26.27 8.09C2.79 32.65-1.2 56.6.8 80.24A105.73 105.73 0 0 0 32.9 96.36a77.7 77.7 0 0 0 6.9-11.24 68.42 68.42 0 0 1-10.85-5.18c.91-.66 1.8-1.34 2.66-2.02a75.57 75.57 0 0 0 63.92 0c.87.71 1.76 1.39 2.66 2.02a68.68 68.68 0 0 1-10.87 5.19 77 77 0 0 0 6.9 11.23A105.25 105.25 0 0 0 126.34 80.24C128.8 52.84 122.14 29.11 107.7 8.07ZM42.45 65.69c-6.18 0-11.26-5.64-11.26-12.57s4.95-12.58 11.26-12.58 11.4 5.7 11.28 12.58-5 12.57-11.28 12.57Zm42.24 0c-6.18 0-11.26-5.64-11.26-12.57s4.95-12.58 11.26-12.58 11.4 5.7 11.28 12.58-5 12.57-11.28 12.57Z"/>
</svg>

